<svg width="517" height="818" viewBox="0 0 517 818" fill="none" xmlns="http://www.w3.org/2000/svg">
<path d="M244.183 389.012C253.098 419.914 268.655 450.773 286.052 481.531C293.272 494.295 300.782 507.001 308.29 519.702C320.981 541.171 333.664 562.627 344.918 584.325C380.635 653.182 400.495 721.837 357.139 792.329C350.477 803.162 362.213 816.043 373.619 810.206C434.839 778.89 503.525 715.954 511.265 591.209C519.252 484.321 488.309 389.201 440.229 300.964C397.768 223.038 341.803 150.254 287.338 79.4216L286.894 78.8442C279.895 69.7412 272.921 60.6704 266.004 51.6248C253.719 35.5583 239.32 20.5124 222.766 7.66231C214.129 0.95718 201.666 7.70497 202.453 18.562C205.972 67.1333 202.887 207.513 79.5265 375.499L79.5137 375.517L79.501 375.534C-34.0317 533.702 9.82047 655.65 25.7197 689.159C55.6692 752.402 97.5343 789.685 138.528 811.482C150.017 817.59 162.032 804.375 155.044 793.5C129.597 753.895 105.462 687.321 143.95 601.28C176.599 528.29 202.854 472.901 220.942 435.769C229.986 417.203 236.988 403.201 241.727 393.845C242.628 392.066 243.447 390.455 244.183 389.012Z" fill="#00FF00"/>
<path d="M357.139 792.329C400.495 721.837 380.635 653.182 344.918 584.325C333.664 562.627 320.981 541.171 308.29 519.702C300.782 507.001 293.272 494.295 286.052 481.531C268.655 450.773 253.098 419.914 244.183 389.012C243.447 390.455 242.628 392.066 241.727 393.845C236.988 403.201 229.986 417.203 220.942 435.769C202.854 472.901 176.599 528.29 143.95 601.28C105.462 687.321 129.597 753.895 155.044 793.5C162.032 804.375 150.017 817.59 138.528 811.482M357.139 792.329L360.546 794.424M357.139 792.329C350.477 803.162 362.213 816.043 373.619 810.206C434.839 778.89 503.525 715.954 511.265 591.209C519.252 484.321 488.309 389.201 440.229 300.964C397.768 223.038 341.803 150.254 287.338 79.4216M287.338 79.4216L286.894 78.8442M287.338 79.4216C287.19 79.2291 287.042 79.0366 286.894 78.8442M138.528 811.482L140.406 807.95M138.528 811.482C97.5343 789.685 55.6692 752.402 25.7197 689.159C9.82047 655.65 -34.0317 533.702 79.501 375.534L79.5137 375.517L79.5265 375.499C202.887 207.513 205.972 67.1333 202.453 18.562C201.666 7.70497 214.129 0.95718 222.766 7.66231C239.32 20.5124 253.719 35.5583 266.004 51.6248C272.921 60.6704 279.895 69.7412 286.894 78.8442" stroke="black" stroke-width="8"/>
</svg>
