<?xml version="1.0" encoding="UTF-8"?>
<svg xmlns="http://www.w3.org/2000/svg" xmlns:xlink="http://www.w3.org/1999/xlink" width="800" height="800" viewBox="0 0 800 800">
<path fill-rule="nonzero" fill="rgb(50.196078%, 50.196078%, 50.196078%)" fill-opacity="1" d="M 420.5 543.144531 C 387.972656 543.144531 356.777344 530.222656 333.777344 507.222656 C 310.777344 484.222656 297.855469 453.027344 297.855469 420.5 C 297.855469 387.972656 310.777344 356.777344 333.777344 333.777344 C 356.777344 310.777344 387.972656 297.855469 420.5 297.855469 C 453.027344 297.855469 484.222656 310.777344 507.222656 333.777344 C 530.222656 356.777344 543.144531 387.972656 543.144531 420.5 C 543.144531 453.027344 530.222656 484.222656 507.222656 507.222656 C 484.222656 530.222656 453.027344 543.144531 420.5 543.144531 Z M 680.859375 454.488281 C 682.261719 443.277344 683.3125 432.0625 683.3125 420.5 C 683.3125 408.9375 682.261719 397.371094 680.859375 385.457031 L 754.796875 328.339844 C 761.453125 323.085938 763.207031 313.621094 759.003906 305.914062 L 688.917969 184.671875 C 684.714844 176.960938 675.253906 173.808594 667.542969 176.960938 L 580.289062 212.003906 C 562.066406 198.335938 543.144531 186.421875 521.070312 177.660156 L 508.105469 84.800781 C 506.703125 76.390625 499.34375 70.082031 490.582031 70.082031 L 350.417969 70.082031 C 341.65625 70.082031 334.296875 76.390625 332.894531 84.800781 L 319.929688 177.660156 C 297.855469 186.421875 278.933594 198.335938 260.710938 212.003906 L 173.457031 176.960938 C 165.746094 173.808594 156.285156 176.960938 152.082031 184.671875 L 81.996094 305.914062 C 77.441406 313.621094 79.542969 323.085938 86.203125 328.339844 L 160.140625 385.457031 C 158.738281 397.371094 157.6875 408.9375 157.6875 420.5 C 157.6875 432.0625 158.738281 443.277344 160.140625 454.488281 L 86.203125 512.660156 C 79.542969 517.914062 77.441406 527.378906 81.996094 535.085938 L 152.082031 656.328125 C 156.285156 664.039062 165.746094 666.84375 173.457031 664.039062 L 260.710938 628.648438 C 278.933594 642.664062 297.855469 654.578125 319.929688 663.339844 L 332.894531 756.199219 C 334.296875 764.609375 341.65625 770.917969 350.417969 770.917969 L 490.582031 770.917969 C 499.34375 770.917969 506.703125 764.609375 508.105469 756.199219 L 521.070312 663.339844 C 543.144531 654.226562 562.066406 642.664062 580.289062 628.648438 L 667.542969 664.039062 C 675.253906 666.84375 684.714844 664.039062 688.917969 656.328125 L 759.003906 535.085938 C 763.207031 527.378906 761.453125 517.914062 754.796875 512.660156 Z M 680.859375 454.488281 "/>
<path fill-rule="nonzero" fill="rgb(85.098039%, 85.098039%, 85.098039%)" fill-opacity="1" stroke-width="1" stroke-linecap="butt" stroke-linejoin="miter" stroke="rgb(0%, 0%, 0%)" stroke-opacity="1" stroke-miterlimit="4" d="M 495 476 L 732 476 C 748.015625 476 761 488.984375 761 505 L 761 742 C 761 758.015625 748.015625 771 732 771 L 495 771 C 478.984375 771 466 758.015625 466 742 L 466 505 C 466 488.984375 478.984375 476 495 476 Z M 495 476 "/>
<path fill-rule="nonzero" fill="rgb(50.196078%, 50.196078%, 50.196078%)" fill-opacity="1" d="M 497 593 L 731 593 L 731 653 L 497 653 Z M 497 593 "/>
<path fill-rule="nonzero" fill="rgb(50.196078%, 50.196078%, 50.196078%)" fill-opacity="1" d="M 497 505 L 731 505 L 731 565 L 497 565 Z M 497 505 "/>
<path fill-rule="nonzero" fill="rgb(50.196078%, 50.196078%, 50.196078%)" fill-opacity="1" d="M 497 681 L 731 681 L 731 741 L 497 741 Z M 497 681 "/>
</svg>
