<?xml version="1.0" encoding="UTF-8"?>
<svg xmlns="http://www.w3.org/2000/svg" xmlns:xlink="http://www.w3.org/1999/xlink" width="800" height="800" viewBox="0 0 800 800">
<rect x="-80" y="-80" width="960" height="960" fill="rgb(0%, 70.196078%, 100%)" fill-opacity="1"/>
<path fill-rule="nonzero" fill="rgb(100%, 100%, 100%)" fill-opacity="1" d="M 399.75 107 C 345.445312 107 293.367188 128.570312 254.96875 166.96875 C 216.570312 205.367188 195 257.445312 195 311.75 C 195 381.363281 229.808594 442.496094 282.75 479.644531 L 282.75 545.75 C 282.75 553.507812 285.832031 560.945312 291.316406 566.433594 C 296.804688 571.917969 304.242188 575 312 575 L 487.5 575 C 495.257812 575 502.695312 571.917969 508.183594 566.433594 C 513.667969 560.945312 516.75 553.507812 516.75 545.75 L 516.75 479.644531 C 569.691406 442.496094 604.5 381.363281 604.5 311.75 C 604.5 257.445312 582.929688 205.367188 544.53125 166.96875 C 506.132812 128.570312 454.054688 107 399.75 107 Z M 312 662.75 C 312 670.507812 315.082031 677.945312 320.566406 683.433594 C 326.054688 688.917969 333.492188 692 341.25 692 L 458.25 692 C 466.007812 692 473.445312 688.917969 478.933594 683.433594 C 484.417969 677.945312 487.5 670.507812 487.5 662.75 L 487.5 575 L 312 575 Z M 312 662.75 "/>
</svg>
