<svg width="652" height="1033" viewBox="0 0 652 1033" fill="none" xmlns="http://www.w3.org/2000/svg">
<path d="M308.173 490.672C319.463 529.833 339.165 568.939 361.197 607.918C370.34 624.093 379.851 640.195 389.359 656.29C405.431 683.497 421.494 710.687 435.746 738.185C480.979 825.444 506.13 912.448 451.223 1001.78C442.786 1015.51 457.649 1031.83 472.094 1024.43C549.624 984.749 636.61 904.993 646.412 746.908C656.527 611.453 617.34 490.911 556.45 379.092C502.676 280.339 431.801 188.103 362.825 98.3396L362.263 97.6079C353.399 86.0721 344.567 74.5769 335.807 63.1138C320.249 42.7533 302.014 23.6862 281.05 7.40179C270.111 -1.09536 254.328 7.45586 255.325 21.2146C259.781 82.7671 255.874 260.665 99.6474 473.547L99.6312 473.57L99.6151 473.592C-44.1655 674.032 11.3699 828.572 31.5051 871.037C69.4339 951.182 122.453 998.429 174.368 1026.05C188.918 1033.79 204.134 1017.05 195.285 1003.26C163.058 953.074 132.493 868.707 181.235 759.671C222.582 667.174 255.832 596.981 278.74 549.925C290.193 526.397 299.061 508.653 305.062 496.796C306.203 494.542 307.24 492.5 308.173 490.672Z" fill="#00FF00"/>
<path d="M451.223 1001.78C506.13 912.448 480.979 825.444 435.746 738.185C421.494 710.687 405.431 683.497 389.359 656.29C379.851 640.195 370.34 624.093 361.197 607.918C339.165 568.939 319.463 529.833 308.173 490.672C307.24 492.5 306.203 494.542 305.062 496.796C299.061 508.653 290.193 526.397 278.74 549.925C255.832 596.981 222.582 667.174 181.235 759.671C132.493 868.707 163.058 953.074 195.285 1003.26C204.134 1017.05 188.918 1033.79 174.368 1026.05M451.223 1001.78L455.538 1004.43M451.223 1001.78C442.786 1015.51 457.649 1031.83 472.094 1024.43C549.624 984.749 636.61 904.993 646.412 746.908C656.527 611.453 617.34 490.911 556.45 379.092C502.676 280.339 431.801 188.103 362.825 98.3396M362.825 98.3396L362.263 97.6079M362.825 98.3396C362.638 98.0957 362.45 97.8518 362.263 97.6079M174.368 1026.05L176.747 1021.58M174.368 1026.05C122.453 998.429 69.4339 951.182 31.5051 871.037C11.3699 828.572 -44.1655 674.032 99.6151 473.592L99.6312 473.57L99.6474 473.547C255.874 260.665 259.781 82.7671 255.325 21.2146C254.328 7.45586 270.111 -1.09536 281.05 7.40179C302.014 23.6862 320.249 42.7533 335.807 63.1138C344.567 74.5769 353.399 86.0721 362.263 97.6079" stroke="black" stroke-width="8"/>
</svg>
