<?xml version="1.0" encoding="UTF-8"?>
<svg xmlns="http://www.w3.org/2000/svg" xmlns:xlink="http://www.w3.org/1999/xlink" width="646.25" height="1022.5" viewBox="0 0 646.25 1022.5">
<path fill-rule="nonzero" fill="rgb(0%, 100%, 0%)" fill-opacity="1" d="M 244.183594 389.011719 C 253.097656 419.914062 268.65625 450.773438 286.050781 481.53125 C 293.273438 494.296875 300.78125 507 308.289062 519.703125 C 320.980469 541.171875 333.664062 562.628906 344.917969 584.324219 C 380.636719 653.183594 400.496094 721.835938 357.140625 792.328125 C 350.476562 803.160156 362.214844 816.042969 373.617188 810.207031 C 434.839844 778.890625 503.523438 715.953125 511.265625 591.210938 C 519.253906 484.320312 488.308594 389.199219 440.230469 300.964844 C 397.769531 223.039062 341.804688 150.253906 287.339844 79.421875 L 286.894531 78.84375 C 279.894531 69.742188 272.921875 60.671875 266.003906 51.625 C 253.71875 35.558594 239.320312 20.511719 222.765625 7.664062 C 214.128906 0.957031 201.664062 7.703125 202.453125 18.5625 C 205.972656 67.132812 202.886719 207.511719 79.527344 375.5 L 79.515625 375.515625 L 79.5 375.535156 C -34.03125 533.703125 9.820312 655.648438 25.71875 689.160156 C 55.667969 752.402344 97.535156 789.683594 138.527344 811.480469 C 150.015625 817.589844 162.03125 804.375 155.042969 793.5 C 129.597656 753.894531 105.460938 687.320312 143.949219 601.28125 C 176.597656 528.289062 202.855469 472.902344 220.941406 435.769531 C 229.984375 417.203125 236.988281 403.199219 241.726562 393.84375 C 242.628906 392.066406 243.445312 390.453125 244.183594 389.011719 Z M 244.183594 389.011719 "/>
<path fill="none" stroke-width="8" stroke-linecap="butt" stroke-linejoin="miter" stroke="rgb(0%, 0%, 0%)" stroke-opacity="1" stroke-miterlimit="4" d="M 357.140625 792.328125 C 400.496094 721.835938 380.636719 653.183594 344.917969 584.324219 C 333.664062 562.628906 320.980469 541.171875 308.289062 519.703125 C 300.78125 507 293.273438 494.296875 286.050781 481.53125 C 268.65625 450.773438 253.097656 419.914062 244.183594 389.011719 C 243.445312 390.453125 242.628906 392.066406 241.726562 393.84375 C 236.988281 403.199219 229.984375 417.203125 220.941406 435.769531 C 202.855469 472.902344 176.597656 528.289062 143.949219 601.28125 C 105.460938 687.320312 129.597656 753.894531 155.042969 793.5 C 162.03125 804.375 150.015625 817.589844 138.527344 811.480469 M 357.140625 792.328125 L 360.546875 794.425781 M 357.140625 792.328125 C 350.476562 803.160156 362.214844 816.042969 373.617188 810.207031 C 434.839844 778.890625 503.523438 715.953125 511.265625 591.210938 C 519.253906 484.320312 488.308594 389.199219 440.230469 300.964844 C 397.769531 223.039062 341.804688 150.253906 287.339844 79.421875 M 287.339844 79.421875 L 286.894531 78.84375 M 287.339844 79.421875 C 287.191406 79.230469 287.042969 79.035156 286.894531 78.84375 M 138.527344 811.480469 L 140.40625 807.949219 M 138.527344 811.480469 C 97.535156 789.683594 55.667969 752.402344 25.71875 689.160156 C 9.820312 655.648438 -34.03125 533.703125 79.5 375.535156 L 79.515625 375.515625 L 79.527344 375.5 C 202.886719 207.511719 205.972656 67.132812 202.453125 18.5625 C 201.664062 7.703125 214.128906 0.957031 222.765625 7.664062 C 239.320312 20.511719 253.71875 35.558594 266.003906 51.625 C 272.921875 60.671875 279.894531 69.742188 286.894531 78.84375 "/>
</svg>
