<svg width="800" height="800" viewBox="0 0 800 800" fill="none" xmlns="http://www.w3.org/2000/svg">
    <path d="M387.13 380.519C395.597 409.852 410.375 439.144 426.896 468.339C433.756 480.456 440.887 492.514 448.018 504.572C460.073 524.951 472.12 545.318 482.809 565.911C516.736 631.273 535.598 696.439 494.419 763.351C488.089 773.633 499.238 785.861 510.068 780.322C568.219 750.596 633.455 690.855 640.809 572.448C648.396 470.987 619.004 380.697 573.339 296.944C533.009 222.976 479.852 153.887 428.121 86.6528L427.698 86.104C421.049 77.4647 414.426 68.8551 407.855 60.2677C396.187 45.0173 382.511 30.7346 366.787 18.5395C358.584 12.1731 346.744 18.5766 347.494 28.8844C350.837 74.9879 347.906 208.237 230.737 367.693L230.726 367.708L230.711 367.727C122.877 517.861 164.528 633.613 179.628 665.423C208.075 725.453 247.841 760.841 286.776 781.53C297.688 787.33 309.1 774.786 302.463 764.463C278.294 726.869 255.369 663.676 291.926 582.007C322.936 512.722 347.876 460.149 365.054 424.902C373.643 407.278 380.296 393.986 384.796 385.105C385.653 383.418 386.429 381.887 387.13 380.519Z" fill="#00FF00"/>
    <path d="M494.419 763.351C535.598 696.439 516.736 631.273 482.809 565.911C472.12 545.318 460.073 524.951 448.018 504.572C440.887 492.514 433.756 480.456 426.896 468.339C410.375 439.144 395.597 409.852 387.13 380.519C386.429 381.887 385.653 383.418 384.796 385.105C380.296 393.986 373.643 407.278 365.054 424.902C347.876 460.149 322.936 512.722 291.926 582.007C255.369 663.676 278.294 726.869 302.463 764.463C309.1 774.786 297.688 787.33 286.776 781.53M494.419 763.351L497.654 765.342M494.419 763.351C488.089 773.633 499.238 785.861 510.068 780.322C568.219 750.596 633.455 690.855 640.809 572.448C648.396 470.987 619.004 380.697 573.339 296.944C533.009 222.976 479.852 153.887 428.121 86.6528M286.776 781.53L288.561 778.179M286.776 781.53C247.841 760.841 208.075 725.453 179.628 665.423C164.528 633.613 122.877 517.861 230.711 367.727L230.726 367.708L230.737 367.693C347.906 208.237 350.837 74.9879 347.494 28.8844C346.744 18.5766 358.584 12.1731 366.787 18.5395C382.511 30.7346 396.187 45.0173 407.855 60.2677C414.426 68.8551 421.049 77.4647 427.698 86.104M428.121 86.6528L427.698 86.104M428.121 86.6528C427.98 86.4711 427.839 86.2857 427.698 86.104" stroke="black" stroke-width="8"/>
</svg>